<svg xmlns="http://www.w3.org/2000/svg" viewBox="0 0 19.55 26.01"><defs><style>.cls-1,.cls-2{fill:none;stroke:#00537f;stroke-linecap:round;stroke-linejoin:round;stroke-width:0.5px;}.cls-2{fill-rule:evenodd;}</style></defs><g id="Layer_2" data-name="Layer 2"><g id="_1" data-name="1"><path class="cls-1" d="M4.67,10.47s5.45-3.4,3.62-7.57S2.88.51,2.07,1.45h0a1,1,0,0,1,.41.13A8.5,8.5,0,0,1,3.91,2.7c1,.95,1.12,1.59,1.92,2.06a3.49,3.49,0,0,0,2.26.38"/><path class="cls-1" d="M8.63,5.2a5.34,5.34,0,0,1,2.1,3.43,5.45,5.45,0,0,1-3,5.35"/><path class="cls-1" d="M10.77,9.24A4.75,4.75,0,0,1,12.4,11.5a5.55,5.55,0,0,1-1.85,5.65"/><path class="cls-1" d="M12.6,13a2.44,2.44,0,0,1,.92.68c1,1.21.57,3.47-.95,5.62"/><path class="cls-1" d="M14,15.79a3.17,3.17,0,0,1,.78.83,3.3,3.3,0,0,1,.41,2.29,3.53,3.53,0,0,1-1,2"/><path class="cls-1" d="M15.25,18.27a2.59,2.59,0,0,1,.8.84,2.78,2.78,0,0,1,.38,1.67,3,3,0,0,1-.67,1.65"/><path class="cls-1" d="M16.44,20.48a2.39,2.39,0,0,1,.79.82,2.94,2.94,0,0,1,0,2.6"/><path class="cls-1" d="M2.41,1.93a2.17,2.17,0,0,1,.18,1.22C2.38,4.46.84,4.6.37,5.88S1.06,8.81,1.2,9a4.28,4.28,0,0,0,3.24,1.51,3.23,3.23,0,0,0,.14,1.3A4.19,4.19,0,0,0,7.42,14.2a3,3,0,0,0,.15.75,4.32,4.32,0,0,0,2.65,2.42,2.76,2.76,0,0,0,.32.89,3,3,0,0,0,1.74,1.32,1.89,1.89,0,0,0,.36.77,2,2,0,0,0,1.08.72,3,3,0,0,0,.59,1,2.83,2.83,0,0,0,1.12.75,3.69,3.69,0,0,0,.65.85,3.85,3.85,0,0,0,.87.63,7.65,7.65,0,0,0,1.14.9c.6.4,1,.68,1.16.58s0-.81-1.72-3.46"/><path class="cls-2" d="M3,.77A2.44,2.44,0,0,1,5,.89,5.26,5.26,0,0,1,6.53,2.13a11.67,11.67,0,0,1,1.9,3A7.51,7.51,0,0,1,6.93,6a2.46,2.46,0,0,1-1.71.08A3.5,3.5,0,0,1,3.47,3.93,4.49,4.49,0,0,0,1.88,1.6"/></g></g></svg>