<svg xmlns="http://www.w3.org/2000/svg" viewBox="0 0 213.87 185.95"><defs><style>.cls-1{isolation:isolate;}.cls-2{mix-blend-mode:screen;}.cls-3{fill:none;stroke:#ead9d4;stroke-linecap:round;stroke-linejoin:round;stroke-width:2px;}</style></defs><g class="cls-1"><g id="Layer_2" data-name="Layer 2"><g id="_1" data-name="1"><g class="cls-2"><path class="cls-3" d="M134.28,13.77A17.92,17.92,0,0,0,129,8.84c-2.16-1.11-5-1.2-6.81.45-2,1.85-1.88,5-2.34,7.64-1.32,7.65-8.55,13.32-16.18,14.72s-15.52-.71-22.63-3.84C74.44,24.89,67.17,21,60.39,23.52c-8.06,3-10.47,13.05-16.09,19.55-5,5.75-12.63,8.75-17.31,14.74-4.29,5.49-5.51,12.69-6.6,19.57-1.75,11.13-3.47,22.75,0,33.49,1.84,5.77,5.14,11.2,5.47,17.25.31,5.81-2.21,11.46-5.59,16.19s-7.62,8.8-11.38,13.24c-3.31,3.91-6.32,8.28-7.44,13.28s0,10.75,3.86,14.12c15.59-8.76,20.82-29.77,29.8-44.09a86.53,86.53,0,0,1,28.08-27.77c7.25-4.44,15.15-7.79,22.18-12.56s13.36-11.35,15.39-19.61c1.71-7,.19-14.25,0-21.41s1.4-15.21,7.32-19.24"/><path class="cls-3" d="M111.18,35.33c1.26-3.17,6.35-3,8.41-.32s1.68,6.61.39,9.76-3.34,6-4.5,9.17c-4.1,11.35,3.89,24.53-.54,35.74-2.51,6.38-8.48,10.61-14.22,14.36C87.85,112.44,74.57,120.3,62.64,130c-14.37,11.68-26.53,25.8-38.6,39.84"/><path class="cls-3" d="M5.78,184.89c15.13-2.41,28.61-10.9,40.52-20.54S69,143.73,81.61,135c8.3-5.77,17.69-10.63,27.78-11.11,17.52-.85,21.48,7.05,35.74,3.12,12.43-3.42,12.26-11,25.71-13.27A47.5,47.5,0,0,0,187.1,108c4-2.34,4.64-3.59,4.89-4.42,1.52-4.9-6.45-7.86-8-16.13-1.21-6.27,1.45-14.6,6.65-17.6,3.45-2,8.33-1.82,8.68-4A8.48,8.48,0,0,0,198.6,63a33.93,33.93,0,0,0-1.23-3.25"/><path class="cls-3" d="M185.9,67.6a18.78,18.78,0,0,1,11.57-10c2.44-.73,5.09-1.19,5.85-3.19.4-1.06,0-1.85-1.78-7-1.57-4.62-1.61-5.1-1.58-5.68.18-2.71,1.92-4.81,3.67-6.91,2.12-2.56,3-2.55,3.61-4s.71-4-2-8.23"/><path class="cls-3" d="M175.18,74.68a43.2,43.2,0,0,0,2.87-9.7,14.56,14.56,0,0,0-1.82-9.76c-2.57-3.95-7.65-6.13-9.15-10.59-1.25-3.7.08-8.64-3-11-2.84-2.15-7.08-.21-10.44-1.44-2.89-1.06-4.44-4.23-5.06-7.26s-.64-6.2-1.82-9-4.1-5.36-7.11-4.69c-2,.44-3.39,2.05-4.68,3.57l-9.84,11.59"/><path class="cls-3" d="M193.27,42.52c1.65-2.44,3.34-5,3.9-7.87s-.32-6.28-2.85-7.81-6.12-.93-8.25-3c-3.19-3.05-.46-9.09-3.27-12.48a6.25,6.25,0,0,0-4.58-2,18.71,18.71,0,0,0-5.09.7"/><path class="cls-3" d="M150,13.72c5-.82,10.62-2,13.44-6.23,1.24-1.86,1.94-4.31,4-5.28,2.19-1,4.74.2,6.81,1.46s4.53,2.61,6.79,1.74c1.88-.72,3-2.81,5-3.33s3.86.69,5.82,1.11A14.92,14.92,0,0,0,197.52,3q5.13-.89,10.27-1.75c1.79-.3,3.94-.46,5.08,1-2,.47-2.49,3.16-2.42,5.26s-.09,4.73-2,5.53a6.94,6.94,0,0,1-3.4,8.17"/><path class="cls-3" d="M203.35,22.22a9.8,9.8,0,0,0,1.54-3.76A3.32,3.32,0,0,0,203.2,15c-.71-.31-1.53-.26-2.26-.51-1.79-.6-2.54-2.7-2.86-4.57-.27-1.64-.6-3.6-2.12-4.29s-3.3.37-4.91,0"/><path class="cls-3" d="M206.94,11.09c-.05-1-.17-2.08-1-2.61-.35-.23-.78-.31-1.11-.56-.71-.54-.69-1.62-1.14-2.39a2.23,2.23,0,0,0-3.29-.5"/><path class="cls-3" d="M107.82,39.72a49,49,0,0,1-29.48,5.15c-4.17-.58-8.35-1.7-12.53-1.19-4.39.55-8.31,2.85-11.88,5.35A89.42,89.42,0,0,0,18.74,98.66"/></g></g></g></g></svg>