<svg xmlns="http://www.w3.org/2000/svg" viewBox="0 0 430.16 225"><defs><style>.cls-1{isolation:isolate;}.cls-2{mix-blend-mode:screen;}.cls-3,.cls-4,.cls-5,.cls-6{fill:none;stroke:#ead9d4;stroke-linecap:round;stroke-linejoin:round;}.cls-3{stroke-width:1.89px;}.cls-4{stroke-width:1.35px;}.cls-5{stroke-width:1.13px;}.cls-6{stroke-width:1.13px;}</style></defs><g class="cls-1"><g id="Layer_2" data-name="Layer 2"><g id="_1" data-name="1"><g class="cls-2"><path class="cls-3" d="M179.35,75.27c-12.43,2.71-25.26,2.85-37.88,4.48a162.11,162.11,0,0,0-71.8,27.77c-.51,2.82,2.52,4.87,5.09,6.11,3.7,1.78,7.5,3.58,11.59,3.92s8.59-1.13,10.74-4.62.78-9-3.15-10.17"/><path class="cls-3" d="M78.63,110.06a4,4,0,0,0,2.07.78,3.33,3.33,0,0,0,2-.37,2.81,2.81,0,0,0,1.23-1.73c.56-2.24-1.8-5-4.17-4.36A3.31,3.31,0,0,0,78.63,110.06Z"/><path class="cls-3" d="M87.27,102.11A6.16,6.16,0,0,1,87,112.94"/><path class="cls-3" d="M152.72,103.5C158,99,163.54,94.35,170.2,92.31c9.53-2.92,19.81-.09,29.75-.85-.54-3.7-3.81-6.46-4.75-10.08-.86-3.3.35-6.77,1.77-9.88s3.12-6.22,3.28-9.63a37.22,37.22,0,0,1-20.9,13.4"/><path class="cls-3" d="M93.06,116.11c18.46,2.2,37.93,1.7,54.57-6.59,2.84-1.41,4.16-4.52,7.11-5.22,4.22-1,8.55-1.64,12.8-2.46a14.75,14.75,0,0,0,5-1.59,14.87,14.87,0,0,0,4-4.25l3.31-4.61"/><path class="cls-3" d="M106.21,88.46A62.12,62.12,0,0,1,150,79"/><path class="cls-3" d="M127.61,105.41a1.87,1.87,0,0,0-.84-2.22,4.62,4.62,0,0,0-2.49-.56,26.81,26.81,0,0,0-12.93,3.63,55,55,0,0,0-6.58,4.29,15.43,15.43,0,0,0-3.13,2.39c-1,1.35.52.7,1.49.33q7.74-2.91,15.67-5.33c1.51-.46,3-.91,4.54-1.35C123.93,106.42,127.39,105.89,127.61,105.41Z"/><path class="cls-3" d="M102.22,89.23A2.69,2.69,0,0,1,105,84.67a1.6,1.6,0,0,1-2.11-.81,2.6,2.6,0,0,1,.29-2.42,8,8,0,0,1,1.77-1.8l5.56-4.51c1.53-1.24,3.28-2.56,5.24-2.39a5.22,5.22,0,0,1,3.84,2.7A15.47,15.47,0,0,1,121.19,80"/><path class="cls-3" d="M116.11,82.18a3.47,3.47,0,1,0-5.91,2.95"/><path class="cls-3" d="M115.64,72.67A124.11,124.11,0,0,1,138.45,56.6a136.94,136.94,0,0,1,26.63-10.86c11.3-3.51,15.24-3.53,22.75-5.56,9.39-2.53,22.31-7.67,36.84-19.17a22.31,22.31,0,0,1-1.8,5,39.1,39.1,0,0,0-2,3.88,25.26,25.26,0,0,0-1,4.3,13.19,13.19,0,0,1-3.68,6.12c2.07,0,3.58,2.12,3.8,4.18s-.41,4.11-.6,6.17.25,4.43,2,5.57A36.55,36.55,0,0,0,203.87,52c-10.37.15-17.61,4.83-21.3,7.29a46.37,46.37,0,0,0-16.16,18.93"/><path class="cls-3" d="M190,55.52a4.38,4.38,0,0,1-.21,4.15,13,13,0,0,1-2.85,3.25L172.22,76.24"/><path class="cls-3" d="M336.06,174.79a13.35,13.35,0,0,1,4.38,6.88,7.8,7.8,0,0,1-2.24,7.56c-1.71,1.45-4.35,1.29-9.62,1-4.33-.25-8-.83-8-.83-2.95-.48-5-1-5.2-.54s1.63,1.6,1.93,1.79c4.34,2.71,11.53,1.16,16-.22"/><path class="cls-3" d="M315.73,189a1.1,1.1,0,0,1-.57-.43c-2.66-4.06,22.3-32.43,54.72-45.09,12.14-4.74,14.59-4.48,22.27-8.81,9.66-5.45,17.07-14.2,26.53-20a2.34,2.34,0,0,1,1.8-.32c1.62.43,1.53,2.42,1.35,3.93a24.69,24.69,0,0,0,6.94,19.88,1.5,1.5,0,0,1-1.12,2.57,59.3,59.3,0,0,0-51.32,25.48"/><path class="cls-3" d="M327.16,183.15a4,4,0,0,0,.45,3,2.32,2.32,0,0,0,4.19-1.28,3.17,3.17,0,0,0-.58-1.82,5.09,5.09,0,0,0-2.32-2C327.76,180.75,327.29,182.31,327.16,183.15Z"/><path class="cls-3" d="M369,179.34a27.35,27.35,0,0,0,3-3.34c3.19-4.18,5-9.62,4-14.78"/><path class="cls-3" d="M337.5,189.61a20,20,0,0,0,11.5.6,39.76,39.76,0,0,0,10.78-4.39c.93-.51,1.85-1,2.75-1.61"/><path class="cls-3" d="M377.76,165.31a14.18,14.18,0,0,0,19.32-17.38"/><path class="cls-3" d="M363.27,146c1.3-5,4.74-9.06,8.21-12.85,1.68-1.85,3.5-3.74,5.88-4.52a9.75,9.75,0,0,1,7.85,1.16,21.14,21.14,0,0,1,5.88,5.63"/><path class="cls-3" d="M403,130.7a13.58,13.58,0,0,1,4.27,2.39,6.87,6.87,0,0,1,2.09,5.67"/><path class="cls-3" d="M341.14,174.12c5.48-1.08,10.43-4,14.84-7.45s8.37-7.41,12.69-10.95a85.14,85.14,0,0,1,24.1-13.86"/><path class="cls-3" d="M344.36,179.76a70,70,0,0,1,29.32.51,1.49,1.49,0,0,1,1.06.62,1,1,0,0,1-.35,1.16,2.89,2.89,0,0,1-1.21.47A88.75,88.75,0,0,1,345,184.07"/><path class="cls-3" d="M136.07,190.19c2.49-.31,4.76,2.16,4.75,4.68a7.08,7.08,0,0,1-4,5.94,16,16,0,0,1-7.33,1.46c-3.2,0-6.65-.36-9.06-2.47a3.72,3.72,0,0,1-1.45-2.74A1.87,1.87,0,0,1,121,195.2"/><path class="cls-3" d="M172.58,164a113.61,113.61,0,0,0,21-9.26c2.94-1.69,6.39-3.88,11.31-4a20,20,0,0,1,10.26,2.7"/><path class="cls-3" d="M224.34,166.13a25.34,25.34,0,0,1-8.28,12.43c-9.75,7.81-21.78,4.87-23.26,4.48"/><path class="cls-3" d="M120.08,195.31a97.89,97.89,0,0,1,16.66-13.6c38.7-25.07,75.23-26.78,96.94-31.75,11.65-2.67,20.48-16.81,20.48-16.81,1.65-1.41,3-2.58,3.84-3.32a16.44,16.44,0,0,1,1.29,7.24,17.27,17.27,0,0,1-5.25,11.2,14.7,14.7,0,0,1,12.56,7.27,120.83,120.83,0,0,0-47.84,12.62c-5.62,2.82-10.12,5.31-13.94,7.59-13.38,8-21.43,13.25-24.92,15.39-6.1,3.75-18.24,8.27-45.39,10.55"/><path class="cls-3" d="M140.33,182.41a6.3,6.3,0,0,1,4.15,2.11,9.57,9.57,0,0,1,2.11,4.22,13.32,13.32,0,0,1-3,11.85"/><path class="cls-3" d="M151.18,193.2a81.45,81.45,0,0,0,23.08-9.14c.46,3.19-1.53,6.34-4.18,8.18s-5.86,2.63-9,3.4a44.31,44.31,0,0,1-11.16,1.7,1.65,1.65,0,0,1-1.19-2.74l0,0A5,5,0,0,1,151.18,193.2Z"/><path class="cls-3" d="M235.73,151.83A9.4,9.4,0,0,1,238,158.4"/><path class="cls-3" d="M151.35,172A241.61,241.61,0,0,1,225,129.22c21.43-7.79,44.29-12.69,63.44-25.07a17.41,17.41,0,0,1-7.71,16.56,14.41,14.41,0,0,1,14.34,7.62,215.86,215.86,0,0,0-36.91,4.18"/><path class="cls-3" d="M259.76,120.38a7.39,7.39,0,0,1,3.63,7.67"/><path class="cls-3" d="M201.4,138.51c4.12-1.7,7.56-4.66,11-7.54s6.92-5.78,11.11-7.3,9.24-1.42,12.72,1.36"/><path class="cls-3" d="M226.18,151.48q6.06-4.2,12.67-8.43,7.32-4.7,14.35-8.79"/><path class="cls-3" d="M256,189.84c-.16,2.1-.46,6-3.27,9.22a28.66,28.66,0,0,1-8.13,5.89c-16.71,8.92-36.5,12.7-55,8.49a6.48,6.48,0,0,1-3.11-1.17c-1.26-1-1.81-2.59-1.55-2.79s1,.9,2.07.8c.7-.07,1.57-.6,1.56-1.28,0-.9-1-1.38-1.87-1.65.31-3.1,2.37-5.58,4.72-7.62,11.72-10.18,25.61-17.65,40.1-23.25s29.61-9.36,44.78-12.69c13.48-3,27.5-7.09,48.65-13.41l6.16-1.86c-1.29,6.33-3.84,9.15-6,10.56-2.37,1.55-4.66,1.63-5.49,3.72s.74,3.47.89,6.83a13,13,0,0,1-1.52,6.49q-2.94-.59-6.17-1a92,92,0,0,0-19.27-.44c2.09-.55,6.65-2.1,8.84-6.08,1-1.87.74-2.83.65-3.09-.56-1.59-2.89-2.56-5.89-2.41"/><path class="cls-3" d="M255.14,194.43a122.34,122.34,0,0,1,38.94-20"/><path class="cls-3" d="M257.28,192.83a18.38,18.38,0,0,0,10-.37A22.28,22.28,0,0,0,272,189.9c11.53-7.15,13.14-8.44,14.15-9.27a66.5,66.5,0,0,0,5.89-5.54"/><path class="cls-3" d="M225.18,179.23c2.84-5.89,9-9.48,15.25-11.48s12.81-2.79,19-5c4.69-1.67,9.1-4.13,14-5.2s10.52-.41,13.83,3.3"/><path class="cls-3" d="M204.86,197.27a24.69,24.69,0,0,1,4.23,4.74,8.25,8.25,0,0,1,1.28,6.08c-.68,2.92-3.34,4.89-5.81,6.59"/><path class="cls-3" d="M239.5,198c1.5,2.61.05,6.11-2.38,7.88s-5.53,2.25-8.51,2.68L218.69,210c-1.23.18-6.66,1.06-4.72-1.75,1.4-2,4.87-2.18,7-2.7a73,73,0,0,0,9-2.9A70.28,70.28,0,0,0,239.5,198Z"/><path class="cls-3" d="M131.49,192.2a2.42,2.42,0,0,0-1.58,3.12,2.47,2.47,0,0,0,3.31,1.2,2.53,2.53,0,0,0,.92-3.42,2.6,2.6,0,0,0-3.48-.76"/><path class="cls-3" d="M199.37,203.36a1.35,1.35,0,0,0-1.66.33,2,2,0,0,0-.39,1.74,2.62,2.62,0,0,0,2.29,2.08,2.27,2.27,0,0,0,2.36-1.86,2.05,2.05,0,0,0-3.28-1.91"/><path class="cls-4" d="M131.44,193.46a.61.61,0,0,1,.64.69.58.58,0,1,1-1-.53"/><path class="cls-5" d="M198.89,205.36a.39.39,0,1,0,.68-.39l-.7,0-.11.73"/><path class="cls-3" d="M345,42.26c-.15,2.11-.45,6.05-3.27,9.23a28.49,28.49,0,0,1-8.13,5.88c-16.7,8.93-36.49,12.71-55,8.49a6.34,6.34,0,0,1-3.11-1.16c-1.26-1-1.81-2.59-1.56-2.8s1,.91,2.08.8c.7-.06,1.56-.59,1.56-1.28,0-.89-1-1.38-1.87-1.65.31-3.09,2.36-5.57,4.71-7.61C292.18,42,306.07,34.5,320.56,28.91s29.61-9.36,44.78-12.7c13.48-3,27.5-7.09,48.65-13.4L420.15.94c-1.29,6.33-3.84,9.16-6,10.56-2.37,1.55-4.66,1.64-5.49,3.72s.74,3.47.89,6.83a13,13,0,0,1-1.52,6.5c-2-.39-4-.74-6.17-1a91.29,91.29,0,0,0-19.27-.44c2.09-.56,6.64-2.1,8.83-6.08,1-1.87.75-2.84.66-3.1-.56-1.58-2.89-2.55-5.9-2.41"/><path class="cls-3" d="M344.2,46.86a122.16,122.16,0,0,1,38.94-20"/><path class="cls-3" d="M346.34,45.26a18.26,18.26,0,0,0,10-.38,21.57,21.57,0,0,0,4.75-2.56c11.52-7.14,13.14-8.43,14.14-9.27a63.22,63.22,0,0,0,5.9-5.53"/><path class="cls-3" d="M314.24,31.66c2.84-5.89,9-9.48,15.25-11.49s12.81-2.78,19-5c4.68-1.66,9.1-4.13,14-5.19s10.52-.41,13.82,3.3"/><path class="cls-3" d="M293.92,49.7a24.11,24.11,0,0,1,4.23,4.74,8.22,8.22,0,0,1,1.28,6.07c-.68,2.93-3.34,4.9-5.81,6.6"/><path class="cls-3" d="M328.56,50.4c1.5,2.6.05,6.1-2.38,7.88s-5.54,2.25-8.51,2.67l-9.92,1.43c-1.23.18-6.66,1-4.72-1.76,1.39-2,4.86-2.17,7-2.7a69.65,69.65,0,0,0,9-2.9A71,71,0,0,0,328.56,50.4Z"/><path class="cls-3" d="M288.43,55.78a1.35,1.35,0,0,0-1.66.34,2,2,0,0,0-.39,1.74,2.63,2.63,0,0,0,2.29,2.08A2.28,2.28,0,0,0,291,58.07a2.06,2.06,0,0,0-3.28-1.9"/><path class="cls-6" d="M287.94,57.78a.4.4,0,1,0,.69-.39l-.7,0-.11.73"/><path class="cls-3" d="M79.67,106.86a1.72,1.72,0,0,0-.76.7.79.79,0,0,0,.18,1,.74.74,0,0,0,1.07-.5,1.18,1.18,0,0,0-.58-1.17"/><path class="cls-3" d="M112.67,80.54a.34.34,0,0,0-.29.25.69.69,0,0,0,0,.4.7.7,0,0,0,.65.51.57.57,0,0,0,.49-.57.77.77,0,0,0-.45-.64,1.1,1.1,0,0,0-.8,0"/><path class="cls-3" d="M328.46,183.42a.83.83,0,0,0-.4,1,.76.76,0,0,0,.89.48.7.7,0,0,0,.42-.9.63.63,0,0,0-.93-.24"/><path class="cls-3" d="M22,206.72a13.35,13.35,0,0,1,4.38,6.88,7.8,7.8,0,0,1-2.24,7.56c-1.72,1.45-4.36,1.29-9.63,1-4.32-.25-8-.84-8-.84-2.95-.48-5-1-5.21-.53s1.64,1.6,1.93,1.78c4.35,2.71,11.54,1.17,16.05-.21"/><path class="cls-3" d="M1.7,221a1.22,1.22,0,0,1-.56-.43c-2.66-4.07,22.3-32.44,54.72-45.09C68,170.68,70.45,171,78.13,166.62c9.65-5.45,17.07-14.2,26.53-20a2.31,2.31,0,0,1,1.79-.32c1.63.43,1.54,2.41,1.36,3.93a24.7,24.7,0,0,0,6.93,19.88,1.5,1.5,0,0,1-1.11,2.57A59.33,59.33,0,0,0,62.3,198.16"/><path class="cls-3" d="M13.14,215.07a4.06,4.06,0,0,0,.45,3,2.32,2.32,0,0,0,4.18-1.28A3.14,3.14,0,0,0,17.2,215a5.07,5.07,0,0,0-2.33-2C13.74,212.68,13.27,214.24,13.14,215.07Z"/><path class="cls-3" d="M54.93,211.27a26.64,26.64,0,0,0,3-3.34c3.19-4.19,5-9.62,4-14.78"/><path class="cls-3" d="M23.48,221.54a20,20,0,0,0,11.5.6,40.09,40.09,0,0,0,10.78-4.39c.92-.52,1.84-1.05,2.75-1.62"/><path class="cls-3" d="M63.74,197.24a14.18,14.18,0,0,0,19.32-17.39"/><path class="cls-3" d="M49.25,177.9c1.3-5,4.74-9.07,8.2-12.86,1.69-1.84,3.51-3.73,5.88-4.51a9.76,9.76,0,0,1,7.86,1.15,21.42,21.42,0,0,1,5.88,5.63"/><path class="cls-3" d="M88.93,162.62A13.73,13.73,0,0,1,93.19,165a6.88,6.88,0,0,1,2.09,5.67"/><path class="cls-3" d="M27.11,206C32.6,205,37.55,202,42,198.59s8.37-7.4,12.69-10.94a84.91,84.91,0,0,1,24.1-13.86"/><path class="cls-3" d="M30.33,211.69a70,70,0,0,1,29.32.51,1.45,1.45,0,0,1,1.07.61,1,1,0,0,1-.35,1.17,3.08,3.08,0,0,1-1.22.47A88.69,88.69,0,0,1,31,216"/><path class="cls-3" d="M14.44,215.35a.81.81,0,0,0-.4.94.74.74,0,0,0,.89.48.69.69,0,0,0,.42-.89.64.64,0,0,0-.94-.24"/></g></g></g></g></svg>