<svg xmlns="http://www.w3.org/2000/svg" viewBox="0 0 389.01 113.67"><defs><style>.cls-1{fill:#e3e9f1;}.cls-2{fill:none;stroke:#0090bc;stroke-linecap:round;stroke-linejoin:round;stroke-width:3.57px;}</style></defs><g id="Layer_2" data-name="Layer 2"><g id="_1" data-name="1"><path class="cls-1" d="M388.6,77.63q0,2-4.14,4.16a17.17,17.17,0,0,1-8,2.16c-5.36,0-8.15-2.76-8.38-8.31q-4.44,8.67-13.75,8.67a11.77,11.77,0,0,1-8.27-3,9.93,9.93,0,0,1-3.26-7.67q0-9.6,11.48-15.22,3.94-1.87,13.69-3.75V51.76q0-10.3-1.05-13.59-1.87-6-8.43-6a10.54,10.54,0,0,0-6.85,2.22A6.93,6.93,0,0,0,348.91,40c0,.63.48.94,1.46.94A3.39,3.39,0,0,1,353,42.39a4.81,4.81,0,0,1,1.18,3.16q0,5.14-5.16,5.15a5.93,5.93,0,0,1-4.45-1.81,6.38,6.38,0,0,1-1.75-4.63,12.43,12.43,0,0,1,4.33-9.48q4.8-4.34,13.35-4.34,12.87,0,15.81,7,1.05,2.7,1.05,10.65V70q0,5.39.12,6.33c.39,2.8,1.52,4.21,3.39,4.21a6.93,6.93,0,0,0,5.39-2.34c.78-.86,1.36-1.29,1.75-1.29s.59.23.59.7M368,65.22V56.67q-8.65,2-12.41,5.21a10.79,10.79,0,0,0-3.75,8.61A8.93,8.93,0,0,0,354,76.64a6.87,6.87,0,0,0,5.37,2.4q4.95,0,8-5.62.69-1.29.69-8.2"/><path class="cls-1" d="M85.36,82.14q0,1-2.46,1H53.63q-2.46,0-2.46-1t3.39-1.17c4,0,6.4-.43,7.26-1.29.39-.4.59-3,.59-7.86V11c0,.08-.43,1.44-1.29,4.1q-4.71,14.16-13.64,42.6L42,76.34q-1.65,5.5-2.35,5.51c-.54,0-1.13-.94-1.75-2.81Q34.55,68.38,18.82,25.85l-4.65-12.5V57.49q0,21.43.35,21.66.83,1.53,5.62,1.53c2.58,0,3.86.39,3.86,1.16s-.82,1.29-2.46,1.29a15.44,15.44,0,0,1-2.81-.23,21.69,21.69,0,0,0-2.92-.23l-13.47.46c-1.4,0-2.11-.35-2.11-1s2.23-1.21,6.68-1.29c1.87,0,3-.31,3.28-.94s.47-2.65.47-6.1V17.59A103.79,103.79,0,0,0,10.42,7a3.2,3.2,0,0,0-2-2.23,28,28,0,0,0-6.56-.93C.62,3.79,0,3.44,0,2.81,0,2,1.14,1.52,3.44,1.52h8.17q7,0,9.83-.08Q22,3,28.23,19.86q2.67,7,15,41,2.2-7.6,4.53-15L60.07,7.11c.71-2.2,1.33-4,1.88-5.47L79.6,1.52c2.58,0,4.08.12,4.47.36a1.14,1.14,0,0,1,.59,1.05c0,.78-.67,1.18-2,1.18a27.07,27.07,0,0,0-4.46.23,5.87,5.87,0,0,0-3.86,1.88Q73.76,7,73.77,20V74.57q0,4.7.93,5.52c1,.7,3.55,1.06,7.61,1.06H83q2.34,0,2.34,1"/><path class="cls-1" d="M145.53,78.92c0,.55-.87.86-2.58.94a42.2,42.2,0,0,0-16,4,2,2,0,0,1-.82.23c-.47,0-.7-.31-.7-.94V76.58q-5.36,7.5-15,7.49-8.59,0-12.31-5a9.3,9.3,0,0,1-1.8-3.83A85.91,85.91,0,0,1,96,65.82V39.19c0-2.72-.16-4.31-.47-4.77s-1.37-.73-3.16-.82H90.84q-3.15.24-3.15-.93c0-.55.65-.82,2-.82s3.44.11,6.09.31c1.33.11,2.11.16,2.35.16a58.21,58.21,0,0,0,7.61-.47V64.36c0,6,.38,10,1.17,11.89q1.88,4.55,7.61,4.54a9.79,9.79,0,0,0,9.13-5.12q2.1-3.73,2.11-11.89V45.72a37.58,37.58,0,0,0-.35-5.95V35.93c-.08-1.17-.34-1.85-.76-2A7.75,7.75,0,0,0,122,33.6q-4.92.12-4.92-1.05c0-.47.82-.7,2.46-.7h15.93V64.52a95.79,95.79,0,0,0,.34,10.65c.23,1.49.83,2.34,1.8,2.58a36.73,36.73,0,0,0,6.54.35c.92,0,1.39.27,1.39.82"/><path class="cls-1" d="M187.93,68A15.43,15.43,0,0,1,183,79.55a16.44,16.44,0,0,1-11.8,4.76q-4,0-9.66-2.81a5.74,5.74,0,0,0-2.67-.82c-1.09,0-1.9.74-2.44,2.22-.31.94-.74,1.41-1.28,1.41s-.81-.32-.81-.94V67.68q0-1.29.81-1.29c.63,0,1,.43,1.06,1.3a17.54,17.54,0,0,0,3,8.49,15,15,0,0,0,12.53,6.14,9.39,9.39,0,0,0,6.79-2.47,8.65,8.65,0,0,0,2.58-6.57A9.43,9.43,0,0,0,178.21,66a12.83,12.83,0,0,0-3-2.17q-1.35-.64-7.91-3.11-13-4.92-13-14.79a15.1,15.1,0,0,1,4.41-11,14.76,14.76,0,0,1,10.92-4.46,26.69,26.69,0,0,1,7,1.41,7.41,7.41,0,0,0,2.09.35,2.82,2.82,0,0,0,3-2.34c.23-.78.58-1.17,1-1.17s.82.31.82.93v5.62a65,65,0,0,0,.58,9v.24a.82.82,0,0,1-.93.93c-.47,0-1.06-1.18-1.76-3.54A13.6,13.6,0,0,0,177,35a11.45,11.45,0,0,0-7.43-2.6A9.11,9.11,0,0,0,163,34.9a8.24,8.24,0,0,0-2.58,6.22q0,5.87,7.85,8.92,12.18,4.82,15.45,8a13.37,13.37,0,0,1,4.22,10"/><path class="cls-1" d="M250.68,82.2c0,.62-.66.93-2,.93H227.38c-1,0-1.52-.31-1.52-.93s1.48-.82,4.45-.82c1.79,0,2.83-.21,3.1-.64s.41-1.89.41-4.38V52.65q0-10.63-.94-13.2-2-5.37-8.78-5.37a10.69,10.69,0,0,0-9.13,5q-1.17,1.63-1.17,7.24V76.13a27.14,27.14,0,0,0,.12,3.62c.07.78.38,1.22.93,1.34a42,42,0,0,0,5,.29c.94,0,1.41.32,1.41.94s-.4.81-1.18.81H209.7q-9.72-.1-10.77,0h-1.17c-.86,0-1.29-.23-1.29-.7s.43-.82,1.29-.82h1.75l1.76-.11c1.79.08,2.73-.47,2.81-1.64V27.2q0-18.76-.58-20.29c-.47-.78-2.39-1.21-5.74-1.29-1.87,0-2.81-.29-2.81-.87s.19-.79.59-.87a39.08,39.08,0,0,1,4-.25A27,27,0,0,0,211,.82a11.6,11.6,0,0,1,1.64-.59c.54.94.82,4,.82,9V37.94a16.19,16.19,0,0,1,14.05-7.5q9.36,0,13.35,5.16a14,14,0,0,1,2.45,7.26,74.31,74.31,0,0,1,.24,7.84V80.21q.12,1.17,6.09,1.17c.7.16,1.05.43,1.05.82"/><path class="cls-1" d="M283.28,82.08c0,.7-.51,1-1.52,1h-1.41c-.16,0-2.23-.07-6.21-.23h-3.62q-.94,0-9.37.18c-.47,0-.94,0-1.41,0-1.17.08-1.75-.25-1.75-1,0-.51.42-.77,1.28-.77h3.05c2.18,0,3.28-.47,3.28-1.41.07-.46.11-3.51.11-9.13V11.24A17.77,17.77,0,0,0,265.48,7c-.24-.63-.86-.94-1.87-.94h-4.22c-1.1,0-1.64-.33-1.64-1s1-.93,2.93-1A28.64,28.64,0,0,0,271.1,1.52L273.56.35l.93-.35a39,39,0,0,1,.82,10.31V76a37.74,37.74,0,0,0,.12,4.16,1.11,1.11,0,0,0,.82.88,31.53,31.53,0,0,0,4.33.23c1.8,0,2.7.28,2.7.82"/><path class="cls-1" d="M337.53,32.57c0,.55-.94.87-2.81,1a11.71,11.71,0,0,0-3.57.48,3.35,3.35,0,0,0-1.35,2L329,38.17,328,41.1q-1.64,5.38-4.92,16-9.24,29.74-15.33,46.14-3.75,9.94-10.31,10a6.63,6.63,0,0,1-4.62-1.64,5.44,5.44,0,0,1-1.82-4.22,4.81,4.81,0,0,1,1.47-3.63,5.27,5.27,0,0,1,3.8-1.4,4.82,4.82,0,0,1,4.57,2.57c.7,1.33,1.29,2,1.75,2q1.06,0,3.28-5.73,3.29-8.55,5.15-15.34-8.65-22.72-14.75-39.69-4.21-11.6-4.68-11.72c-.47-.39-1.74-.58-3.81-.58s-3.1-.39-3.1-1.17c0-.62.51-.94,1.52-.94s2.19.08,4,.24,3.17.23,4.1.23h2.11q2.46-.15,6.79-.31l6-.16c.86,0,1.29.34,1.29,1s-1.45.91-4.33,1c-2.42.08-3.63.46-3.63,1.15s.79,3,2.38,7.15c.62,1.8,1.27,3.68,2,5.63l2,5.83q.81,2.6,4.25,11.75c.8,1.88,1.68,4.14,2.65,6.8Q327,36.78,327,35a1.18,1.18,0,0,0-.89-1.3,30.26,30.26,0,0,0-5-.23c-.79,0-1.17-.32-1.17-.94s.46-.83,1.4-.83a2.36,2.36,0,0,1,.93.16c2.66.21,4.84.31,6.56.31h3.28a10.28,10.28,0,0,0,2.75-.23,4.57,4.57,0,0,1,1.58-.24c.71,0,1.06.28,1.06.84"/><path class="cls-2" d="M2,2.81H13.27A4.12,4.12,0,0,1,17.14,5.5L40.08,67.38a1.41,1.41,0,0,0,2.67-.06L62.34,5.69a4.11,4.11,0,0,1,3.93-2.88H82.61"/><line class="cls-2" x1="53.66" y1="81.9" x2="82.53" y2="81.9"/><line class="cls-2" x1="1.99" y1="81.58" x2="21.71" y2="81.58"/><line class="cls-2" x1="12.5" y1="4.19" x2="12.5" y2="80.28"/><line class="cls-2" x1="68.09" y1="4.19" x2="68.09" y2="80.28"/><path class="cls-2" d="M89.36,32.66h9.7A1.92,1.92,0,0,1,101,34.59V71.22S100,81.9,113.81,81.9c7.41,0,11.31-5.78,13.28-10.68"/><path class="cls-2" d="M118.19,32.66h10.58a1.92,1.92,0,0,1,1.93,1.93v42.9a2,2,0,0,0,2.35,2,41.23,41.23,0,0,1,10.38-.61"/><path class="cls-2" d="M181.12,37.37s-4.05-6-11.21-6S157.6,36,157.6,43.36c0,17.49,26.89,9.54,26.89,26.93a13,13,0,0,1-13,13,16.75,16.75,0,0,1-14.2-7.32"/><path class="cls-2" d="M182.6,29.93A57,57,0,0,0,183.08,44"/><path class="cls-2" d="M155.24,67.85a52.48,52.48,0,0,1,0,15.3"/><path class="cls-2" d="M196.18,4.53a42.91,42.91,0,0,0,10.58-.11,1.73,1.73,0,0,1,2.05,1.7V80.93"/><path class="cls-2" d="M258.54,5.18a46.48,46.48,0,0,0,9.86-.71,1.74,1.74,0,0,1,2.11,1.7V80.93"/><line class="cls-2" x1="197.84" y1="82.23" x2="219.36" y2="82.23"/><line class="cls-2" x1="227.44" y1="82.23" x2="248.96" y2="82.23"/><line class="cls-2" x1="259.76" y1="82.23" x2="281.27" y2="82.23"/><line class="cls-2" x1="286.88" y1="32.93" x2="308.39" y2="32.93"/><line class="cls-2" x1="321.3" y1="32.93" x2="336.04" y2="32.93"/><path class="cls-2" d="M238.54,80.36v-36c0-7.91-6.2-11.73-13.58-11.73-7.82,0-11.19,5.34-13.15,11.78"/><path class="cls-2" d="M299.48,108.78s.86-4.58-3.21-4.58c-4.8,0-4.57,7.67,1.15,7.67,0,0,5.93.91,9.82-10.53S329,34.09,329,34.09"/><line class="cls-2" x1="296.83" y1="34.09" x2="313.19" y2="78.8"/><path class="cls-2" d="M387.23,78.34s-3.32,3.89-7.9,3.89-6.86-3.21-6.86-11V43.38s.8-12-13.05-12c-13.62,0-14.78,10.3-14.78,12.47S346,49.31,349.39,49s3.95-4.22,2.23-5.63"/><path class="cls-2" d="M370.85,55.32a47.89,47.89,0,0,0-12.34,3c-7,2.63-11.22,7.25-11.22,13.52,0,7,5.93,10.4,11.31,9.6s8.26-4.5,11.92-11.18"/></g></g></svg>