<svg xmlns="http://www.w3.org/2000/svg" viewBox="0 0 220.08 149.73"><defs><style>.cls-1{isolation:isolate;}.cls-2{mix-blend-mode:screen;}.cls-3{fill:none;stroke:#ead9d4;stroke-linecap:round;stroke-linejoin:round;stroke-width:2px;}</style></defs><g class="cls-1"><g id="Layer_2" data-name="Layer 2"><g id="_1" data-name="1"><g class="cls-2"><path class="cls-3" d="M88.47,110.66c10.52,3.9,21.65,5.94,32.2,9.76,14.28,5.17,27.21,13.5,41.25,19.3s30.2,8.92,44.29,3.26c4.63-1.85,9.18-5,10.66-9.76,1.92-6.17-1.93-12.59-6.13-17.52a91.78,91.78,0,0,0-26.19-21.2c-21.62-11.67-47-14.17-71.56-13.92A384.36,384.36,0,0,0,74.47,83c-2.82.31-5.72.68-8.19,2.07C52.16,93,82.24,108.35,88.47,110.66Z"/><path class="cls-3" d="M123.14,79.51c44.09-7.94,75-12.44,81.35-13.5,3.55-.59,7.16-1.2,10.35-2.86,2-1,4.39-2.35,4.23-3.37-.6-3.82-37-1.06-40.12-.82-20.58,1.61-36,4.33-38.62,4.8C121.71,67.1,94.77,72.7,61,82.27c-1.14-2-2.5-3.7-1.44-5.71a19.76,19.76,0,0,1,4.46-5.11c8.48-7.66,17.43-15.1,28-19.54C103.68,47,116.59,46,129.23,45.12c15.2-1.08,30.47-2.16,45.66-.93s30.41,4.89,43.5,12.69"/><path class="cls-3" d="M62.38,80.4A125.48,125.48,0,0,1,127,48"/><path class="cls-3" d="M67,77.72a277.91,277.91,0,0,1,111.33-28.1"/><path class="cls-3" d="M61.53,87.47c-1.25,4.12.26,8.68,2.94,12,3.83,4.8,9.67,7.45,15.29,9.93L139.84,136c10.49,4.62,21.08,9.28,32.33,11.5s23.36,1.81,33.59-3.36"/><path class="cls-3" d="M89.24,95.54c2.26-.53,4.61,0,6.91.24,10.12,1.12,20-2.69,29.81-5.6s20.71-4.84,29.83-.29c2.61,1.31,5,3.1,7.43,4.62,9.3,5.71,20.6,7.74,29.45,14.12,3,2.13,5.82,5.4,5.14,9-.49,2.6-2.71,4.49-5,5.86-10,6.06-22.74,5.74-34.06,2.75s-21.86-8.36-33-12c-8.24-2.71-16.75-4.47-25-7.16a77,77,0,0,1-11.88-4.91c-1.11-.59-3.52-1.41-3.66-2.88C85.08,97.43,87.83,95.88,89.24,95.54Z"/><path class="cls-3" d="M198.32,114.88a18,18,0,0,1,3.34,5.9c.58,2.19.17,4.81-1.59,6.24a9,9,0,0,1-3.92,1.49c-11.34,2.35-23,4.46-34.47,2.9-7.58-1-14.85-3.65-22.06-6.24l-36-13c-7.07-2.54-14.73-5.57-18.39-12.13"/><path class="cls-3" d="M201.93,120.56a5.32,5.32,0,0,1,2.13,5.82,9.63,9.63,0,0,1-3.9,5.21c-5.31,3.86-12.37,4.19-18.91,3.73a99.21,99.21,0,0,1-23.77-4.66"/><path class="cls-3" d="M133.39,125.76c10,2.25,19.25,6.86,28.88,10.32s20.16,5.76,30.07,3.19a19,19,0,0,0,9.32-5.1c2.43-2.64,3.73-6.5,2.67-9.93"/><path class="cls-3" d="M184.42,116.67c-6.25-3-11.75-7.29-17.81-10.63s-13.06-5.74-19.83-4.36c-3,.61-5.75,1.91-8.65,2.82-6.42,2-13.33,2-20,1"/><path class="cls-3" d="M150.48,24.58A775.28,775.28,0,0,0,22.76,13.91C15,13.9,6.44,14.36,1,19.85c1.7,6.63,9,9.92,15.36,12.3,18,6.72,36.49,13.53,55.73,13.88"/><path class="cls-3" d="M118.62,42.54a78.64,78.64,0,0,1,30.6-12.34c1.65-.29,3.59-.44,4.77.75s1,3.09.26,4.51a18.12,18.12,0,0,1-3.14,3.65A6.57,6.57,0,0,0,149,43.33"/><path class="cls-3" d="M144.5,30.34c3.2-1.76,6.86-4.39,6.46-8-.37-3.27-3.84-5.11-6.86-6.39C128.22,9.23,112,2.42,94.78,1.21,82.88.37,71,2.24,59.16,3.87,40.28,6.46,20.91,8.55,3.74,16.81"/><path class="cls-3" d="M24.92,14.83c-2.53,0-5.55.18-6.79,2.38-1,1.82-.26,4.16,1,5.8,2.66,3.39,7.06,4.81,11.19,6,17.57,5.26,35.7,10.58,53.94,8.7"/><path class="cls-3" d="M34.29,81.51c-2.2-1.44-2.7-4.7-1.56-7.07a9.77,9.77,0,0,1,6.08-4.71,38.62,38.62,0,0,1,7.82-1.13A78.79,78.79,0,0,0,86,53.52c4.88-3.62,9.41-7.86,15-10.33s13.34-3,18,1a9.09,9.09,0,0,0-4.44-5A27.07,27.07,0,0,0,108,36.84c-4.81-1.26-9.78-2.53-14.7-1.82-9.25,1.32-16.13,9.16-24.77,12.71-2.43,1-5.09,1.7-7,3.53-1.53,1.48-2.35,3.53-3.63,5.23-5.19,6.84-16.66,6.67-21.15,14"/><path class="cls-3" d="M68.49,65.18c-5.69,4.2-12.84,5.74-19.56,7.93s-13.67,5.5-17.07,11.7"/><path class="cls-3" d="M65.26,68.6a368.35,368.35,0,0,1-46.1,20.6,5.64,5.64,0,0,1-3.08.51,2,2,0,0,1-1.66-2.27A2.88,2.88,0,0,1,15.93,86l15.76-9"/><path class="cls-3" d="M59.92,89.15A159.91,159.91,0,0,1,18,90.23"/><path class="cls-3" d="M45.76,67.19a51.37,51.37,0,0,0,24-9.25c5.38-3.87,10-8.77,15.6-12.28A38.83,38.83,0,0,1,114,40.73"/></g></g></g></g></svg>