<svg xmlns="http://www.w3.org/2000/svg" viewBox="0 0 141.91 231.84"><defs><style>.cls-1{isolation:isolate;}.cls-2{mix-blend-mode:screen;}.cls-3{fill:none;stroke:#ead9d4;stroke-linecap:round;stroke-linejoin:round;stroke-width:2px;}</style></defs><g class="cls-1"><g id="Layer_2" data-name="Layer 2"><g id="_1" data-name="1"><g class="cls-2"><path class="cls-3" d="M31.57,54.43C23.64,64.24,1.49,94.26,1,137.4c0,0-.43,38.07,26.24,79.68,3.27,5.09,8,8.63,12.31,11.84a7.33,7.33,0,0,0,4.75,1.91c4.36-.27,7.21-6.39,8.14-8.32,4.28-8.82,20.41-36.65,43.36-75.78"/><path class="cls-3" d="M30.54,72.8C24,81.52,28.1,94.12,24.86,104.51c-2,6.33-6.61,11.6-8.36,18-1.5,5.47-.76,11.27,0,16.89,1.41,10.46,2.82,21,6.26,31a24.83,24.83,0,0,0,4.08,8,10.63,10.63,0,0,0,7.71,4.1c2.86,0,5.58-1.42,8.44-1.43,3.48,0,6.56,2.09,9.75,3.47s7.41,1.87,9.73-.72,1.49-6.28,2.41-9.45c1-3.51,4.07-6.13,7.44-7.53S79.37,165,83,164.68"/><path class="cls-3" d="M103.77,37.46c-2.09-4.58-4.82-9-8.93-11.94S85,21.62,80.61,24.14c-3,1.74-4.93,4.83-6.93,7.67A80.09,80.09,0,0,1,57.05,49.12c-4.84,3.72-10.34,7.14-13,12.63C41.66,66.68,42,72.43,41.14,77.84c-1.54,9.75-7,18.81-7,28.69A50.34,50.34,0,0,0,49.7,84.83c1.17-3.19,2-6.54,3.79-9.45s4.67-5.41,8.07-5.56"/><path class="cls-3" d="M74.48,57A9,9,0,0,1,70.63,56,3.09,3.09,0,0,1,69,52.7a4.59,4.59,0,0,1,2.22-2.28,36.42,36.42,0,0,1,7.76-4,12.16,12.16,0,0,1,8.57.06c4,1.76,6.26,6.31,6.53,10.7S93,65.85,91.69,70,89,78.52,89.19,82.91"/><path class="cls-3" d="M76.46,41.72a15.52,15.52,0,0,1,11.75-.09,22.18,22.18,0,0,1,9.41,7.3,17.28,17.28,0,0,1,3.92,9.48c.34,7.11-5.42,14.08-3.1,20.81"/><path class="cls-3" d="M48,102.16a112.1,112.1,0,0,0-.39,22.13c.31,3.84,1,8,3.77,10.63C53.94,137.41,58,138,61.45,137a19.84,19.84,0,0,0,8.93-5.85,21.23,21.23,0,0,0,5-7.75,12.05,12.05,0,0,0-.35-9,12,12,0,0,1,3.24,11.66c-1,4.37-3.52,8.23-6.07,11.93-2.17,3.14-4.55,6.35-8,8-4.86,2.37-11,1-15.11-2.48s-6.44-8.74-7.39-14-.66-10.77-.36-16.16"/><path class="cls-3" d="M33.54,126.83c1.13,6.88,2.3,13.9,5.56,20.07s9,11.44,15.93,12.26c5.34.63,10.59-1.4,15.59-3.39a17.54,17.54,0,0,1-30.53,4.59"/><path class="cls-3" d="M56.58,114.54c-1.1-5.61-2.2-11.3-1.74-17S57.52,86.05,62,82.49s11.43-4.22,15.83-.57a14.88,14.88,0,0,0-8.31-11.35,19.58,19.58,0,0,1,12.9,5.29"/><path class="cls-3" d="M96.47,146.37c22.67-23.53,29.36-43.07,31.16-56.8,1.71-13-.72-22.7,5.91-38.37,3.88-9.19,8.45-14.68,7.14-23.58-1.51-10.26-9.58-16.72-10.6-17.46-4.37-3.18-9.76-4.56-15-5.87-10.53-2.63-21.88-5.22-32-1.23C77.15,5.42,72.29,9.85,67.54,14.15s-9.46,8.47-14.25,12.64a59.56,59.56,0,0,1-10.5,7.82c-3.39,1.84-7.23,3.11-9.86,5.93a11.6,11.6,0,0,0-1.08,14"/><path class="cls-3" d="M80.15,157.45c8.26.7,14.84-7.46,16.55-15.58s.19-16.55,1-24.81c.85-9.18,4.49-17.83,8-26.35s7-17.27,7.53-26.47-2.4-19.1-9.68-24.76"/></g></g></g></g></svg>