<svg xmlns="http://www.w3.org/2000/svg" viewBox="0 0 234.16 193.67"><defs><style>.cls-1{isolation:isolate;}.cls-2{mix-blend-mode:color-dodge;}.cls-3{fill:none;stroke:#ead9d4;stroke-linecap:round;stroke-linejoin:round;stroke-width:2px;}</style></defs><g class="cls-1"><g id="Layer_2" data-name="Layer 2"><g id="_1" data-name="1"><g class="cls-2"><path class="cls-3" d="M66.41,65c22.09-4.89,44.89,3.38,65.2,13.35,6.6,3.23,13.18,6.69,20.31,8.51s15,1.83,21.5-1.63c6.87-3.65,11.28-10.64,14.58-17.68s5.78-14.65,4.45-22.2c-1.29-7.36-6.18-13.73-12.19-18.15S167.14,20,160,17.77A200.87,200.87,0,0,0,98.21,8.49c-10,.08-19.94.9-29.88.33S48.29,6.21,39.79,1c1.47,10.83,6.9,21.71,15.56,28.38A42.54,42.54,0,0,0,86.19,37.8"/><path class="cls-3" d="M47.06,9.12c18.79,8.81,40.27,9.08,61,10s42.46,2.85,59.75,14.33c1.1.73,2.18,1.51,3.22,2.35"/><path class="cls-3" d="M84.5,25.64a4.26,4.26,0,0,0,4.87.62c3.45-1.91,2.26-7.51-1.6-8S81.85,23.12,84.5,25.64Z"/><path class="cls-3" d="M103.13,44.91A108.14,108.14,0,0,1,52.58,57.3"/><path class="cls-3" d="M56.73,125.06c13.66.61,27.58,1.46,40.32,6.41"/><path class="cls-3" d="M49.74,27.8A105.59,105.59,0,0,0,1,48"/><path class="cls-3" d="M192.17,44.74c9.3,2.73,18.77,6.65,24.81,14.22,8.12,10.2,7.9,25.84.31,36.44-7.41,10.35-20.81,17.86-34.47,13.95C167.42,104.93,162.33,89.24,162,88"/><path class="cls-3" d="M221.85,85.79a35.32,35.32,0,0,1,11,21.07c.48,3.75,1.65,18.18-9.05,27.32-9.76,8.35-24.9,8.43-35.44,1.07-13.29-9.27-12.76-25.82-12.7-26.94"/><path class="cls-3" d="M96.43,40.8a69.93,69.93,0,0,1-52,.71"/><path class="cls-3" d="M97.46,53.53a96.42,96.42,0,0,1,50,19.82"/><path class="cls-3" d="M174,164.44a16.31,16.31,0,0,0-2.71,17.78,18.81,18.81,0,0,0,15,10.36,22.23,22.23,0,0,0,17.38-6.37,26.13,26.13,0,0,0,6.22-9.83c1.31-3.63.58-6.12,4.14-7.86a23.91,23.91,0,0,0,12.11-15,29.05,29.05,0,0,0-1.68-19.38"/><path class="cls-3" d="M83.42,74.8A90.49,90.49,0,0,0,59.49,86.62"/><path class="cls-3" d="M108,73.26,83.89,84c-4.16,1.86-8.7,4.09-10.42,8.32"/><path class="cls-3" d="M121.24,78.9A62,62,0,0,0,86.75,95.8"/><path class="cls-3" d="M132,84.51a59.21,59.21,0,0,0-36.7,15.73"/><path class="cls-3" d="M143.39,89.7a99.31,99.31,0,0,0-35.25,25.61"/><path class="cls-3" d="M151.18,98.83a58.82,58.82,0,0,0-21.79,29.63"/><path class="cls-3" d="M158.09,104.83A36,36,0,0,0,144,131.89"/><path class="cls-3" d="M165.05,109.72l-10.79,24.37"/><path class="cls-3" d="M172.67,119.25l-20.39,24.17"/><path class="cls-3" d="M172.82,127.13a61.66,61.66,0,0,1-30.18,26.72"/><path class="cls-3" d="M177,137.09a135.85,135.85,0,0,1-38.28,26.57"/><path class="cls-3" d="M174.73,146.92a63.29,63.29,0,0,1-26.31,18.48"/><path class="cls-3" d="M77.53,165.86c5.2-2.88,10.91-5.86,16.78-4.92,5.38.86,9.65,4.81,13.92,8.21a85.85,85.85,0,0,0,30.37,15.37,88.25,88.25,0,0,0,16.85,3c2.24.17,14.66-1,15.47.52,2.16,4.18-25.68,4.52-29.06,4.31a109.92,109.92,0,0,1-32-6.94A104.26,104.26,0,0,1,77.53,165.86Z"/><path class="cls-3" d="M167.49,176.21a73.19,73.19,0,0,1-53.23-3.32"/></g></g></g></g></svg>